<svg xmlns="http://www.w3.org/2000/svg" viewBox="0 0 400 400" width="400" height="400" role="img" aria-label="Pasto mirror frame">
  <defs>
    <linearGradient id="bg" x1="0" y1="0" x2="1" y2="1">
      <stop offset="0" stop-color="#1d1714"/>
      <stop offset="1" stop-color="#14100e"/>
    </linearGradient>
    <linearGradient id="glass" x1="0" y1="0" x2="1" y2="1">
      <stop offset="0" stop-color="#3a4a44"/>
      <stop offset="0.5" stop-color="#20302b"/>
      <stop offset="1" stop-color="#101815"/>
    </linearGradient>
  </defs>
  <rect width="400" height="400" fill="url(#bg)"/>
  <rect x="80" y="60" width="240" height="280" rx="18" fill="#191412"/>
  <rect x="96" y="76" width="208" height="248" rx="12" fill="none" stroke="#c9a24a" stroke-width="5"/>
  <rect x="110" y="90" width="180" height="220" rx="8" fill="url(#glass)"/>
  <path d="M96 100h208M96 296h208" stroke="#2f6b4f" stroke-width="7"/>
  <g fill="#c9a24a">
    <circle cx="118" cy="88" r="5"/><circle cx="160" cy="88" r="5"/><circle cx="200" cy="88" r="5"/>
    <circle cx="240" cy="88" r="5"/><circle cx="282" cy="88" r="5"/>
    <circle cx="118" cy="312" r="5"/><circle cx="160" cy="312" r="5"/><circle cx="200" cy="312" r="5"/>
    <circle cx="240" cy="312" r="5"/><circle cx="282" cy="312" r="5"/>
  </g>
  <path d="M130 330l40-40 30 24 40-52 30 34" fill="none" stroke="#f4ece0" stroke-width="3" opacity="0.35"/>
</svg>
